<svg xmlns="http://www.w3.org/2000/svg" xmlns:xlink="http://www.w3.org/1999/xlink" width="300" zoomAndPan="magnify" viewBox="0 0 224.87999 74.999997" height="100" preserveAspectRatio="xMidYMid meet" version="1.2"><defs><clipPath id="4fad36f1d0"><path d="M 48.859375 5.65625 L 78.722656 5.65625 L 78.722656 20.472656 L 48.859375 20.472656 Z M 48.859375 5.65625 "/></clipPath><clipPath id="b0fcb0fb74"><path d="M 48.859375 50.699219 L 78.722656 50.699219 L 78.722656 65.632812 L 48.859375 65.632812 Z M 48.859375 50.699219 "/></clipPath><clipPath id="a884e07107"><path d="M 48.734375 20.59375 L 78.722656 20.59375 L 78.722656 50.582031 L 48.734375 50.582031 Z M 48.734375 20.59375 "/></clipPath><clipPath id="94a49e649a"><path d="M 78.722656 35.589844 C 78.722656 27.308594 72.007812 20.59375 63.726562 20.59375 C 55.445312 20.59375 48.734375 27.308594 48.734375 35.589844 C 48.734375 43.871094 55.445312 50.582031 63.726562 50.582031 C 72.007812 50.582031 78.722656 43.871094 78.722656 35.589844 Z M 78.722656 35.589844 "/></clipPath><clipPath id="8ea8e90392"><path d="M 20.589844 5.539062 L 50.578125 5.539062 L 50.578125 35.527344 L 20.589844 35.527344 Z M 20.589844 5.539062 "/></clipPath><clipPath id="e47ccd6032"><path d="M 50.578125 20.535156 C 50.578125 12.253906 43.867188 5.539062 35.585938 5.539062 C 27.304688 5.539062 20.589844 12.253906 20.589844 20.535156 C 20.589844 28.816406 27.304688 35.527344 35.585938 35.527344 C 43.867188 35.527344 50.578125 28.816406 50.578125 20.535156 Z M 50.578125 20.535156 "/></clipPath><clipPath id="c020850683"><path d="M 20.589844 35.648438 L 50.578125 35.648438 L 50.578125 65.636719 L 20.589844 65.636719 Z M 20.589844 35.648438 "/></clipPath><clipPath id="de0273e535"><path d="M 50.578125 50.644531 C 50.578125 42.363281 43.867188 35.648438 35.585938 35.648438 C 27.304688 35.648438 20.589844 42.363281 20.589844 50.644531 C 20.589844 58.925781 27.304688 65.636719 35.585938 65.636719 C 43.867188 65.636719 50.578125 58.925781 50.578125 50.644531 Z M 50.578125 50.644531 "/></clipPath></defs><g id="733f6d0ce0"><g clip-rule="nonzero" clip-path="url(#4fad36f1d0)"><path style=" stroke:none;fill-rule:nonzero;fill:#001639;fill-opacity:1;" d="M 48.984375 5.539062 L 48.984375 5.609375 C 48.984375 7.617188 49.378906 9.5625 50.152344 11.394531 C 50.902344 13.164062 51.972656 14.753906 53.339844 16.117188 C 54.703125 17.484375 56.292969 18.554688 58.0625 19.304688 C 59.894531 20.078125 61.839844 20.472656 63.847656 20.472656 C 65.855469 20.472656 67.800781 20.078125 69.632812 19.304688 C 71.402344 18.554688 72.992188 17.484375 74.355469 16.117188 C 75.71875 14.753906 76.792969 13.164062 77.539062 11.394531 C 78.316406 9.5625 78.707031 7.617188 78.707031 5.609375 L 78.707031 5.539062 Z M 48.984375 5.539062 "/></g><g clip-rule="nonzero" clip-path="url(#b0fcb0fb74)"><path style=" stroke:none;fill-rule:nonzero;fill:#001639;fill-opacity:1;" d="M 48.984375 65.632812 L 48.984375 65.5625 C 48.984375 63.554688 49.378906 61.609375 50.152344 59.777344 C 50.902344 58.007812 51.972656 56.417969 53.339844 55.054688 C 54.703125 53.6875 56.292969 52.617188 58.0625 51.867188 C 59.894531 51.09375 61.839844 50.699219 63.847656 50.699219 C 65.855469 50.699219 67.800781 51.09375 69.632812 51.867188 C 71.402344 52.617188 72.992188 53.6875 74.355469 55.054688 C 75.71875 56.417969 76.792969 58.007812 77.539062 59.777344 C 78.316406 61.609375 78.707031 63.554688 78.707031 65.5625 L 78.707031 65.632812 Z M 48.984375 65.632812 "/></g><g clip-rule="nonzero" clip-path="url(#a884e07107)"><g clip-rule="nonzero" clip-path="url(#94a49e649a)"><path style=" stroke:none;fill-rule:nonzero;fill:#001639;fill-opacity:1;" d="M 78.722656 20.59375 L 78.722656 50.582031 L 48.734375 50.582031 L 48.734375 20.59375 Z M 78.722656 20.59375 "/></g></g><g clip-rule="nonzero" clip-path="url(#8ea8e90392)"><g clip-rule="nonzero" clip-path="url(#e47ccd6032)"><path style=" stroke:none;fill-rule:nonzero;fill:#001639;fill-opacity:1;" d="M 50.578125 5.539062 L 50.578125 35.527344 L 20.589844 35.527344 L 20.589844 5.539062 Z M 50.578125 5.539062 "/></g></g><g clip-rule="nonzero" clip-path="url(#c020850683)"><g clip-rule="nonzero" clip-path="url(#de0273e535)"><path style=" stroke:none;fill-rule:nonzero;fill:#001639;fill-opacity:1;" d="M 50.578125 35.648438 L 50.578125 65.636719 L 20.589844 65.636719 L 20.589844 35.648438 Z M 50.578125 35.648438 "/></g></g><g style="fill:#000000;fill-opacity:1;"><g transform="translate(84.553988, 21.86982)"><path style="stroke:none" d="M 4 0 L 2.046875 0 L 2.046875 -15.0625 L 4 -15.0625 Z M 4 0 "/></g></g><g style="fill:#000000;fill-opacity:1;"><g transform="translate(90.608234, 21.86982)"><path style="stroke:none" d="M 12.984375 -3.25 L 12.984375 -15.0625 L 14.9375 -15.0625 L 14.9375 0 L 13.265625 0 L 4 -11.765625 L 4 0 L 2.046875 0 L 2.046875 -15.0625 L 3.703125 -15.0625 L 12.96875 -3.25 Z M 12.984375 -3.25 "/></g></g><g style="fill:#000000;fill-opacity:1;"><g transform="translate(107.586673, 21.86982)"><path style="stroke:none" d="M 7.265625 0 L 5.296875 0 L 5.296875 -13.296875 L 0.546875 -13.296875 L 0.546875 -15.0625 L 12.03125 -15.0625 L 12.03125 -13.296875 L 7.265625 -13.296875 Z M 7.265625 0 "/></g></g><g style="fill:#000000;fill-opacity:1;"><g transform="translate(120.171089, 21.86982)"><path style="stroke:none" d="M 12.15625 0 L 2.046875 0 L 2.046875 -15.0625 L 12.0625 -15.0625 L 12.0625 -13.265625 L 4 -13.265625 L 4 -8.5 L 11 -8.5 L 11 -6.8125 L 4 -6.8125 L 4 -1.765625 L 12.15625 -1.765625 Z M 12.15625 0 "/></g></g><g style="fill:#000000;fill-opacity:1;"><g transform="translate(133.120746, 21.86982)"><path style="stroke:none" d="M 4 0 L 2.046875 0 L 2.046875 -15.0625 L 8.453125 -15.0625 C 9.179688 -15.0625 9.847656 -14.945312 10.453125 -14.71875 C 11.066406 -14.488281 11.59375 -14.164062 12.03125 -13.75 C 12.476562 -13.332031 12.820312 -12.832031 13.0625 -12.25 C 13.3125 -11.675781 13.4375 -11.035156 13.4375 -10.328125 C 13.4375 -9.585938 13.300781 -8.921875 13.03125 -8.328125 C 12.757812 -7.734375 12.375 -7.234375 11.875 -6.828125 C 11.382812 -6.421875 10.804688 -6.128906 10.140625 -5.953125 L 13.765625 0 L 11.515625 0 L 8.171875 -5.671875 C 8.085938 -5.660156 8.003906 -5.65625 7.921875 -5.65625 C 7.835938 -5.65625 7.757812 -5.65625 7.6875 -5.65625 L 4 -5.65625 Z M 4 -13.296875 L 4 -7.328125 L 8.40625 -7.328125 C 8.988281 -7.335938 9.507812 -7.460938 9.96875 -7.703125 C 10.4375 -7.953125 10.804688 -8.300781 11.078125 -8.75 C 11.347656 -9.207031 11.484375 -9.726562 11.484375 -10.3125 C 11.484375 -10.894531 11.34375 -11.40625 11.0625 -11.84375 C 10.789062 -12.289062 10.421875 -12.644531 9.953125 -12.90625 C 9.484375 -13.164062 8.957031 -13.296875 8.375 -13.296875 Z M 4 -13.296875 "/></g></g><g style="fill:#000000;fill-opacity:1;"><g transform="translate(147.575662, 21.86982)"><path style="stroke:none" d="M 12.984375 -3.25 L 12.984375 -15.0625 L 14.9375 -15.0625 L 14.9375 0 L 13.265625 0 L 4 -11.765625 L 4 0 L 2.046875 0 L 2.046875 -15.0625 L 3.703125 -15.0625 L 12.96875 -3.25 Z M 12.984375 -3.25 "/></g></g><g style="fill:#000000;fill-opacity:1;"><g transform="translate(164.554101, 21.86982)"><path style="stroke:none" d="M 14.765625 0 L 12.6875 0 L 11.265625 -3.40625 L 3.65625 -3.40625 L 2.21875 0 L 0.140625 0 L 6.515625 -15.0625 L 8.40625 -15.0625 Z M 7.390625 -12.296875 L 4.34375 -5.0625 L 10.5625 -5.0625 L 7.53125 -12.296875 L 7.46875 -12.546875 L 7.453125 -12.546875 Z M 7.390625 -12.296875 "/></g></g><g style="fill:#000000;fill-opacity:1;"><g transform="translate(179.462814, 21.86982)"><path style="stroke:none" d="M 11.328125 0 L 2.046875 0 L 2.046875 -15.0625 L 4 -15.0625 L 4 -1.765625 L 11.328125 -1.765625 Z M 11.328125 0 "/></g></g><g style="fill:#000000;fill-opacity:1;"><g transform="translate(84.553988, 41.562794)"><path style="stroke:none" d="M 14.765625 0 L 12.6875 0 L 11.265625 -3.40625 L 3.65625 -3.40625 L 2.21875 0 L 0.140625 0 L 6.515625 -15.0625 L 8.40625 -15.0625 Z M 7.390625 -12.296875 L 4.34375 -5.0625 L 10.5625 -5.0625 L 7.53125 -12.296875 L 7.46875 -12.546875 L 7.453125 -12.546875 Z M 7.390625 -12.296875 "/></g></g><g style="fill:#000000;fill-opacity:1;"><g transform="translate(99.462701, 41.562794)"><path style="stroke:none" d="M 8 0.3125 C 7.113281 0.3125 6.289062 0.171875 5.53125 -0.109375 C 4.78125 -0.398438 4.125 -0.816406 3.5625 -1.359375 C 3 -1.898438 2.554688 -2.546875 2.234375 -3.296875 C 1.921875 -4.054688 1.765625 -4.898438 1.765625 -5.828125 L 1.765625 -15.0625 L 3.703125 -15.0625 L 3.703125 -5.984375 C 3.703125 -5.367188 3.796875 -4.789062 3.984375 -4.25 C 4.171875 -3.707031 4.445312 -3.226562 4.8125 -2.8125 C 5.1875 -2.40625 5.640625 -2.082031 6.171875 -1.84375 C 6.703125 -1.613281 7.3125 -1.5 8 -1.5 C 8.664062 -1.5 9.257812 -1.613281 9.78125 -1.84375 C 10.3125 -2.070312 10.757812 -2.390625 11.125 -2.796875 C 11.5 -3.210938 11.78125 -3.6875 11.96875 -4.21875 C 12.164062 -4.757812 12.265625 -5.335938 12.265625 -5.953125 L 12.265625 -15.0625 L 14.21875 -15.0625 L 14.21875 -5.828125 C 14.21875 -4.921875 14.066406 -4.09375 13.765625 -3.34375 C 13.460938 -2.59375 13.03125 -1.945312 12.46875 -1.40625 C 11.914062 -0.863281 11.257812 -0.441406 10.5 -0.140625 C 9.738281 0.160156 8.90625 0.3125 8 0.3125 Z M 8 0.3125 "/></g></g><g style="fill:#000000;fill-opacity:1;"><g transform="translate(115.445012, 41.562794)"><path style="stroke:none" d="M 7.578125 0 L 2.046875 0 L 2.046875 -15.0625 L 7.546875 -15.0625 C 8.734375 -15.0625 9.8125 -14.878906 10.78125 -14.515625 C 11.757812 -14.160156 12.597656 -13.648438 13.296875 -12.984375 C 14.003906 -12.316406 14.546875 -11.523438 14.921875 -10.609375 C 15.296875 -9.691406 15.484375 -8.664062 15.484375 -7.53125 C 15.484375 -6.40625 15.296875 -5.378906 14.921875 -4.453125 C 14.546875 -3.523438 14.007812 -2.726562 13.3125 -2.0625 C 12.613281 -1.40625 11.78125 -0.894531 10.8125 -0.53125 C 9.84375 -0.175781 8.765625 0 7.578125 0 Z M 3.96875 -13.3125 L 3.96875 -1.765625 L 7.53125 -1.765625 C 8.769531 -1.765625 9.832031 -2 10.71875 -2.46875 C 11.613281 -2.9375 12.300781 -3.597656 12.78125 -4.453125 C 13.257812 -5.316406 13.5 -6.332031 13.5 -7.5 C 13.5 -8.664062 13.257812 -9.679688 12.78125 -10.546875 C 12.300781 -11.421875 11.609375 -12.097656 10.703125 -12.578125 C 9.804688 -13.066406 8.738281 -13.3125 7.5 -13.3125 Z M 3.96875 -13.3125 "/></g></g><g style="fill:#000000;fill-opacity:1;"><g transform="translate(131.836848, 41.562794)"><path style="stroke:none" d="M 4 0 L 2.046875 0 L 2.046875 -15.0625 L 4 -15.0625 Z M 4 0 "/></g></g><g style="fill:#000000;fill-opacity:1;"><g transform="translate(137.891095, 41.562794)"><path style="stroke:none" d="M 7.265625 0 L 5.296875 0 L 5.296875 -13.296875 L 0.546875 -13.296875 L 0.546875 -15.0625 L 12.03125 -15.0625 L 12.03125 -13.296875 L 7.265625 -13.296875 Z M 7.265625 0 "/></g></g><g style="fill:#000000;fill-opacity:1;"><g transform="translate(84.553988, 63.065447)"><path style="stroke:none" d="M 14.046875 -15.0625 L 8.671875 -8.390625 L 14.8125 0 L 11.546875 0 L 6.875 -6.390625 L 4.546875 -3.46875 L 4.546875 0 L 1.796875 0 L 1.796875 -15.0625 L 4.546875 -15.0625 L 4.546875 -7.125 L 10.828125 -15.0625 Z M 14.046875 -15.0625 "/></g></g><g style="fill:#000000;fill-opacity:1;"><g transform="translate(99.518035, 63.065447)"><path style="stroke:none" d="M 4.546875 0 L 1.796875 0 L 1.796875 -15.0625 L 4.203125 -15.0625 L 9.390625 -8.03125 L 14.609375 -15.0625 L 17.015625 -15.0625 L 17.015625 0 L 14.265625 0 L 14.265625 -10.640625 L 9.75 -4.484375 L 9.015625 -4.484375 L 4.546875 -10.65625 Z M 4.546875 0 "/></g></g><g style="fill:#000000;fill-opacity:1;"><g transform="translate(118.311639, 63.065447)"><path style="stroke:none" d="M 7.953125 0.328125 C 7.046875 0.328125 6.203125 0.1875 5.421875 -0.09375 C 4.648438 -0.382812 3.96875 -0.796875 3.375 -1.328125 C 2.789062 -1.867188 2.335938 -2.519531 2.015625 -3.28125 C 1.691406 -4.039062 1.53125 -4.890625 1.53125 -5.828125 L 1.53125 -15.0625 L 4.265625 -15.0625 L 4.265625 -6.015625 C 4.265625 -5.304688 4.40625 -4.660156 4.6875 -4.078125 C 4.976562 -3.503906 5.398438 -3.046875 5.953125 -2.703125 C 6.503906 -2.359375 7.171875 -2.1875 7.953125 -2.1875 C 8.734375 -2.1875 9.394531 -2.351562 9.9375 -2.6875 C 10.488281 -3.03125 10.910156 -3.492188 11.203125 -4.078125 C 11.492188 -4.660156 11.640625 -5.304688 11.640625 -6.015625 L 11.640625 -15.0625 L 14.390625 -15.0625 L 14.390625 -5.828125 C 14.390625 -4.921875 14.234375 -4.09375 13.921875 -3.34375 C 13.617188 -2.59375 13.179688 -1.941406 12.609375 -1.390625 C 12.035156 -0.847656 11.351562 -0.425781 10.5625 -0.125 C 9.78125 0.175781 8.910156 0.328125 7.953125 0.328125 Z M 7.953125 0.328125 "/></g></g><g style="fill:#000000;fill-opacity:1;"><g transform="translate(134.21648, 63.065447)"><path style="stroke:none" d="M 7.703125 0 L 4.953125 0 L 4.953125 -12.59375 L 0.46875 -12.59375 L 0.46875 -15.0625 L 12.1875 -15.0625 L 12.1875 -12.59375 L 7.703125 -12.59375 Z M 7.703125 0 "/></g></g><g style="fill:#000000;fill-opacity:1;"><g transform="translate(146.878366, 63.065447)"><path style="stroke:none" d="M 4.546875 0 L 1.796875 0 L 1.796875 -15.0625 L 4.15625 -15.0625 L 12.359375 -4.515625 L 12.359375 -15.0625 L 15.109375 -15.0625 L 15.109375 0 L 12.75 0 L 4.546875 -10.53125 Z M 4.546875 0 "/></g></g><g style="fill:#000000;fill-opacity:1;"><g transform="translate(163.779334, 63.065447)"><path style="stroke:none" d="M 8.984375 0 L 1.796875 0 L 1.796875 -15.0625 L 8.359375 -15.0625 C 9.273438 -15.0625 10.078125 -14.894531 10.765625 -14.5625 C 11.453125 -14.226562 11.984375 -13.757812 12.359375 -13.15625 C 12.742188 -12.550781 12.9375 -11.828125 12.9375 -10.984375 C 12.9375 -10.535156 12.847656 -10.109375 12.671875 -9.703125 C 12.503906 -9.304688 12.273438 -8.953125 11.984375 -8.640625 C 11.703125 -8.335938 11.382812 -8.113281 11.03125 -7.96875 C 11.539062 -7.8125 12.003906 -7.554688 12.421875 -7.203125 C 12.835938 -6.847656 13.171875 -6.425781 13.421875 -5.9375 C 13.671875 -5.457031 13.796875 -4.9375 13.796875 -4.375 C 13.796875 -3.625 13.660156 -2.972656 13.390625 -2.421875 C 13.128906 -1.878906 12.765625 -1.425781 12.296875 -1.0625 C 11.835938 -0.707031 11.320312 -0.441406 10.75 -0.265625 C 10.175781 -0.0859375 9.585938 0 8.984375 0 Z M 4.578125 -12.6875 L 4.578125 -8.765625 L 8.21875 -8.765625 C 8.59375 -8.765625 8.925781 -8.847656 9.21875 -9.015625 C 9.507812 -9.191406 9.738281 -9.429688 9.90625 -9.734375 C 10.070312 -10.035156 10.15625 -10.367188 10.15625 -10.734375 C 10.15625 -11.109375 10.070312 -11.441406 9.90625 -11.734375 C 9.738281 -12.023438 9.507812 -12.253906 9.21875 -12.421875 C 8.9375 -12.597656 8.609375 -12.6875 8.234375 -12.6875 Z M 4.578125 -6.703125 L 4.578125 -2.375 L 8.75 -2.375 C 9.175781 -2.375 9.554688 -2.46875 9.890625 -2.65625 C 10.222656 -2.84375 10.488281 -3.101562 10.6875 -3.4375 C 10.882812 -3.769531 10.984375 -4.148438 10.984375 -4.578125 C 10.984375 -4.972656 10.882812 -5.328125 10.6875 -5.640625 C 10.5 -5.960938 10.238281 -6.21875 9.90625 -6.40625 C 9.570312 -6.601562 9.191406 -6.703125 8.765625 -6.703125 Z M 4.578125 -6.703125 "/></g></g></g></svg>